HIERARCHY
ROOT Hips
{
  OFFSET 7.333 -26.027 -164.856
  CHANNELS 6 Xposition Yposition Zposition Zrotation Xrotation Yrotation
  JOINT LeftUpLeg
  {
    OFFSET 10.092 0.000 0.000
    CHANNELS 3 Zrotation Xrotation Yrotation
    JOINT LeftLeg
    {
      OFFSET 0.000 -38.160 -0.000
    CHANNELS 3 Zrotation Xrotation Yrotation
      JOINT LeftFoot
      {
        OFFSET -0.000 -24.040 0.000
    CHANNELS 3 Zrotation Xrotation Yrotation
        End Site
        {
          OFFSET -0.000 0.000 12.945
        }
      }
    }
  }
  JOINT RightUpLeg
  {
    OFFSET -10.092 -0.000 0.000
    CHANNELS 3 Zrotation Xrotation Yrotation
    JOINT RightLeg
    {
      OFFSET 0.000 -33.046 0.000
    CHANNELS 3 Zrotation Xrotation Yrotation
      JOINT RightFoot
      {
        OFFSET 0.000 -22.031 -0.000
    CHANNELS 3 Zrotation Xrotation Yrotation
        End Site
        {
          OFFSET 0.000 -0.000 11.863
        }
      }
    }
  }
  JOINT Spine
  {
    OFFSET -0.000 16.511 0.000
    CHANNELS 3 Zrotation Xrotation Yrotation
    JOINT LeftShoulder
    {
      OFFSET 0 16.511 0
    CHANNELS 3 Zrotation Xrotation Yrotation
      JOINT LeftArm
      {
        OFFSET 16.337 0.000 0.000
    CHANNELS 3 Zrotation Xrotation Yrotation
        JOINT LeftForeArm
        {
          OFFSET 0.000 -24.030 0.000
    CHANNELS 3 Zrotation Xrotation Yrotation
          JOINT LeftHand
          {
            OFFSET 0.000 -17.629 -0.000
    CHANNELS 3 Zrotation Xrotation Yrotation
            End Site
            {
              OFFSET 0.000 -11.753 -0.000
            }
          }
        }
      }
    }
    JOINT RightShoulder
    {
      OFFSET 0 16.511 0
    CHANNELS 3 Zrotation Xrotation Yrotation
      JOINT RightArm
      {
        OFFSET -16.337 0.000 0.000
    CHANNELS 3 Zrotation Xrotation Yrotation
        JOINT RightForeArm
        {
          OFFSET -0.000 -19.534 0.000
    CHANNELS 3 Zrotation Xrotation Yrotation
          JOINT RightHand
          {
            OFFSET 0.000 -19.514 -0.000
    CHANNELS 3 Zrotation Xrotation Yrotation
            End Site
            {
              OFFSET 0.000 -13.010 -0.000
            }
          }
        }
      }
    }
    JOINT Neck
    {
      OFFSET -0.000 16.511 0.000
    CHANNELS 3 Zrotation Xrotation Yrotation
      JOINT Head
      {
        OFFSET -0.000 12.493 -0.000
    CHANNELS 3 Zrotation Xrotation Yrotation
        End Site
        {
          OFFSET -0.000 8.328 -0.000
        }
      }
    }
  }
}
MOTION
Frames: 10
Frame Time: 0.0333333
0 0 0 2.668680e-01 -5.226740e-01 -1.089460e+01 -5.348790e+00 1.404100e+01 1.301250e+00 9.850560e+00 -1.444030e+01 1.165000e+00 0 0 -1.000000e-06 -6.303090e-01 1.307260e+01 1.425610e-01 1.013110e+01 -9.249400e+00 1.543560e+00 0 0 0 -2.000000e-06 0 1.000000e-06 0 0 0 6.037300e+01 -3.971350e+00 4.556460e+00 1.244150e+02 -1.621430e+01 1.492100e+02 0 0 0 0 0 0 -5.302860e+01 -2.490960e+01 2.464960e+01 -1.194360e+02 -1.689480e+00 1.715880e+02 0 3.673420e-40 0 -6.405200e-02 -1.375400e+00 -1.536000e-03 0 0 -1.000000e-06 
0 0 0 1.138280e-01 -1.443761e+00 -9.701130e+00 -4.900000e+00 1.554630e+01 1.316250e+00 8.231260e+00 -1.608670e+01 9.739920e-01 0 0 0 -6.283870e-01 1.358640e+01 1.476100e-01 9.672690e+00 -7.769370e+00 1.235170e+00 0 0 0 1.323489e-23 0 -3.700000e-05 0 0 0 6.101870e+01 -1.226610e+01 -1.655170e-01 1.297950e+02 -1.769370e+01 1.516640e+02 0 0 0 0 0 0 -5.187730e+01 -2.668600e+01 2.631530e+01 -1.266440e+02 -6.502580e+00 1.791440e+02 0 3.673420e-40 0 2.666970e-01 -1.720780e+00 8.010000e-03 0 0 1.000000e-06 
0 0 0 1.949000e-01 -2.149730e+00 -9.228069e+00 -5.528820e+00 1.667930e+01 1.591370e+00 8.843630e+00 -1.639960e+01 1.002940e+00 0 0 -1.724138e-08 -9.589070e-01 1.534880e+01 2.538300e-01 9.581570e+00 -9.049440e+00 1.371810e+00 -9.657594e-09 0 -6.165099e-08 7.632850e-07 -2.495840e-09 -2.000000e-06 0 0 0 6.282870e+01 -1.822720e+01 -2.952560e+00 1.308710e+02 -2.065040e+01 1.497240e+02 6.369427e-09 3.045685e-08 5.844156e-08 0 0 0 -5.472200e+01 -3.115710e+01 2.650600e+01 -1.283300e+02 -1.073770e+01 -1.758240e+02 -6.841505e-09 -3.455724e-08 1.098726e-07 7.147020e-01 -2.278450e+00 2.841800e-02 0 0 -4.347826e-08 
0 0 0 3.700786e-01 -1.173330e+00 -9.249825e+00 -5.403692e+00 1.515039e+01 1.416955e+00 9.211515e+00 -1.489993e+01 1.029809e+00 0 0 5.428845e-08 -4.816261e-01 1.488250e+01 1.234823e-01 8.772860e+00 -1.054638e+01 1.532069e+00 -1.572491e-08 0 NaN NaN 1.285982e-09 1.708158e-05 0 0 0 6.492416e+01 -2.160667e+01 -3.860431e+00 1.300398e+02 -2.108786e+01 1.485878e+02 8.796445e-09 2.406518e-08 4.031468e-08 0 0 0 -5.778936e+01 -3.526273e+01 2.604665e+01 -1.285729e+02 -1.123278e+01 -1.751154e+02 1.354133e-07 -3.436084e-08 2.316062e-08 5.653440e-01 -1.874730e+00 1.849600e-02 0 0 -1.838245e-07 
0 0 0 3.438210e-01 -6.078360e-01 -9.189126e+00 -5.164075e+00 1.422507e+01 1.271969e+00 9.015104e+00 -1.491916e+01 1.034555e+00 0 0 3.186008e-08 -3.135702e-01 1.356448e+01 7.361919e-02 9.303096e+00 -9.197143e+00 1.449554e+00 -1.004304e-08 0 1.968468e-08 -8.750000e-07 -1.309315e-08 5.100616e-05 0 0 0 6.538392e+01 -2.175591e+01 -3.693484e+00 1.299963e+02 -2.076540e+01 1.487287e+02 1.501784e-07 2.542801e-08 1.970659e-08 0 0 0 -5.663070e+01 -3.479040e+01 2.670102e+01 -1.295141e+02 -1.013751e+01 -1.692542e+02 NaN -1.400088e-08 4.285428e-08 5.428190e-01 -1.642210e+00 1.555800e-02 0 0 NaN 
0 0 0 4.548233e-01 -8.075580e-01 -9.245109e+00 -5.239874e+00 1.454140e+01 1.318123e+00 8.725272e+00 -1.545048e+01 9.740181e-01 0 0 1.228707e-08 -3.326529e-01 1.372303e+01 7.888028e-02 8.451189e+00 -9.831556e+00 1.398220e+00 -9.048545e-09 0 -3.613864e-08 -5.098159e-07 -1.856846e-08 1.018606e-04 0 0 0 6.378392e+01 -1.727077e+01 -2.124866e+00 1.287361e+02 -1.975934e+01 1.486527e+02 NaN 2.786409e-08 5.478800e-08 0 0 0 -5.540996e+01 -3.238769e+01 2.654686e+01 -1.282864e+02 -7.438105e+00 -1.172278e+02 NaN -2.437190e-08 3.593989e-08 4.486380e-01 -1.610530e+00 1.261100e-02 0 0 NaN 
0 0 0 8.016780e-01 -6.086032e-01 -9.853667e+00 -5.910540e+00 1.520493e+01 1.553369e+00 8.829016e+00 -1.711914e+01 9.218300e-01 0 0 4.403550e-08 -5.049377e-01 1.454822e+01 1.273770e-01 7.534231e+00 -1.214634e+01 1.490197e+00 -2.105046e-08 0 -3.807136e-08 NaN -2.977850e-23 -5.300000e-05 0 0 0 6.385425e+01 -1.169789e+01 7.243131e-01 1.231801e+02 -1.833570e+01 1.456190e+02 NaN 2.577249e-08 2.299554e-08 0 0 0 -5.629720e+01 -2.836946e+01 2.442934e+01 -1.235625e+02 -3.042574e+00 NaN 4.326602e-08 -5.788807e-08 9.427753e-08 3.511300e-01 -1.577639e+00 9.670000e-03 0 0 -1.665039e-07 
0 0 0 1.155610e+00 -4.153027e-01 -9.756461e+00 -6.031488e+00 1.376071e+01 1.436002e+00 8.277467e+00 -1.461535e+01 6.129992e-01 0 0 6.182515e-08 -5.163484e-01 1.323022e+01 1.181298e-01 6.716410e+00 -1.053850e+01 1.140783e+00 -1.049952e-08 0 -2.153053e-07 NaN -1.547554e-08 7.403356e-05 0 0 0 6.300718e+01 -6.791470e+00 3.138883e+00 1.157840e+02 -1.708062e+01 1.394852e+02 8.036444e-09 2.371409e-08 -6.753891e-08 0 0 0 -5.816937e+01 -2.478216e+01 2.134050e+01 -1.164795e+02 2.849256e+00 NaN -2.235450e-08 -3.696487e-08 1.041219e-08 -5.136900e-02 -1.467055e+00 -1.312000e-03 0 0 NaN 
0 0 0 9.487500e-01 -6.555555e-01 -9.831342e+00 -5.887840e+00 1.438060e+01 1.466061e+00 8.258019e+00 -1.572850e+01 6.930130e-01 0 0 NaN -8.260814e-01 1.285257e+01 1.838078e-01 8.114936e+00 -8.654070e+00 1.105550e+00 -1.174762e-08 0 NaN 1.192614e-08 -1.021079e-08 -1.000000e-06 0 0 0 5.973233e+01 -1.886370e+00 5.801443e+00 1.056631e+02 -1.628333e+01 1.257825e+02 7.258029e-09 7.196357e-08 3.200345e-09 0 0 0 -5.762037e+01 -1.899272e+01 1.984850e+01 -1.058575e+02 7.108673e+00 3.114414e+01 -2.373742e-08 NaN 2.007293e-07 -2.375170e-01 -1.392710e+00 -5.772000e-03 0 0 NaN 
0 0 0 9.408300e-01 -6.359592e-01 -9.911820e+00 -5.619530e+00 1.431995e+01 1.395240e+00 7.689192e+00 -1.559692e+01 6.039778e-01 0 0 -2.298851e-08 -1.230946e+00 1.337693e+01 2.867674e-01 8.996493e+00 -9.510650e+00 1.295382e+00 -2.097268e-08 0 NaN 1.851144e-07 3.599799e-09 2.193833e-06 0 0 0 5.534995e+01 2.937185e+00 9.253197e+00 9.397060e+01 -1.521651e+01 1.010101e+02 6.813481e-08 NaN -4.255673e-08 0 0 0 -5.433052e+01 -1.476585e+01 1.938191e+01 -9.574530e+01 9.183589e+00 3.310646e+01 -1.658344e-08 -1.867605e-08 NaN -2.039168e-01 -1.161600e+00 -4.132244e-03 0 0 -1.905568e-07 
